{
  "accessors": [
    {
      "bufferView": 2,
      "componentType": 5126,
      "count": 86,
      "max": [
        2.697499990463257,
        4.275000095367432,
        0.07799999415874481
      ],
      "min": [
        -2.697499990463257,
        -4.275000095367432,
        -0.0
      ],
      "type": "VEC3"
    },
    {
      "bufferView": 2,
      "byteOffset": 1032,
      "componentType": 5126,
      "count": 86,
      "max": [
        1.0,
        1.0,
        1.0
      ],
      "min": [
        -1.0,
        -1.0,
        -1.0
      ],
      "type": "VEC3"
    },
    {
      "bufferView": 1,
      "componentType": 5126,
      "count": 86,
      "max": [
        2.426785707473755,
        3.5535712242126465
      ],
      "min": [
        -1.4267857074737549,
        -2.5535712242126465
      ],
      "type": "VEC2"
    },
    {
      "bufferView": 0,
      "componentType": 5125,
      "count": 222,
      "type": "SCALAR"
    }
  ],
  "asset": {
    "extras": {
      "author": "Stichting Consortium Beroepsonderwijs (https://sketchfab.com/scb3d)",
      "license": "CC-BY-4.0 (http://creativecommons.org/licenses/by/4.0/)",
      "source": "https://sketchfab.com/3d-models/rfid-card-tag-voor-rc522-rfid-module-952d64cf8d434033bae965e24d0cb6ec",
      "title": "RFID card tag | Voor RC522 RFID module"
    },
    "generator": "Sketchfab-14.27.0",
    "version": "2.0"
  },
  "bufferViews": [
    {
      "buffer": 0,
      "byteLength": 888,
      "name": "floatBufferViews",
      "target": 34963
    },
    {
      "buffer": 0,
      "byteLength": 688,
      "byteOffset": 888,
      "byteStride": 8,
      "name": "floatBufferViews",
      "target": 34962
    },
    {
      "buffer": 0,
      "byteLength": 2064,
      "byteOffset": 1576,
      "byteStride": 12,
      "name": "floatBufferViews",
      "target": 34962
    }
  ],
  "buffers": [
    {
      "byteLength": 3640,
      "uri": "scene.bin"
    }
  ],
  "materials": [
    {
      "doubleSided": true,
      "name": "White",
      "pbrMetallicRoughness": {
        "baseColorFactor": [
          0.5599999999999999,
          0.5599999999999999,
          0.5599999999999999,
          1.0
        ],
        "metallicFactor": 0.0,
        "roughnessFactor": 0.09999999999999998
      }
    }
  ],
  "meshes": [
    {
      "name": "Cuerpo1_White_0",
      "primitives": [
        {
          "attributes": {
            "NORMAL": 1,
            "POSITION": 0,
            "TEXCOORD_0": 2
          },
          "indices": 3,
          "material": 0,
          "mode": 4
        }
      ]
    }
  ],
  "nodes": [
    {
      "children": [
        1
      ],
      "matrix": [
        1.0,
        0.0,
        0.0,
        0.0,
        0.0,
        2.220446049250313e-16,
        -1.0,
        0.0,
        0.0,
        1.0,
        2.220446049250313e-16,
        0.0,
        0.0,
        0.0,
        0.0,
        1.0
      ],
      "name": "Sketchfab_model"
    },
    {
      "children": [
        2
      ],
      "matrix": [
        0.009999999776482582,
        0.0,
        0.0,
        0.0,
        0.0,
        0.0,
        0.009999999776482582,
        0.0,
        0.0,
        -0.009999999776482582,
        0.0,
        0.0,
        0.0,
        0.0,
        0.0,
        1.0
      ],
      "name": "ce5278f9c7a841149e67f91859b7ed24.fbx"
    },
    {
      "children": [
        3,
        5
      ],
      "name": "RootNode"
    },
    {
      "children": [
        4
      ],
      "matrix": [
        0.26062860165080226,
        -0.4520220558494866,
        -0.853081938050004,
        0.0,
        0.1320728513839781,
        0.8920067606389559,
        -0.43229700542763655,
        0.0,
        0.9563626372505635,
        -5.551115123125783e-17,
        0.2921823164928824,
        0.0,
        -4.987131118774414,
        6.836224555969238,
        13.708703994750977,
        1.0
      ],
      "name": "CINEMA_4D_Editor"
    },
    {
      "name": "Object_4"
    },
    {
      "children": [
        6
      ],
      "matrix": [
        1.0,
        0.0,
        0.0,
        0.0,
        0.0,
        -1.1102230246251565e-15,
        -1.0,
        0.0,
        0.0,
        1.0,
        -1.1102230246251565e-15,
        0.0,
        0.0,
        0.0,
        0.0,
        1.0
      ],
      "name": "Tarjeta_RFID_step"
    },
    {
      "children": [
        7
      ],
      "name": "Cuerpo1"
    },
    {
      "mesh": 0,
      "name": "Cuerpo1_White_0"
    }
  ],
  "scene": 0,
  "scenes": [
    {
      "name": "Sketchfab_Scene",
      "nodes": [
        0
      ]
    }
  ]
}
